<?xml version="1.0" encoding="UTF-8" standalone="no"?>
<svg
   width="702"
   height="698"
   viewBox="0 0 702 698"
   version="1.1"
   id="svg2"
   xmlns="http://www.w3.org/2000/svg"
   xmlns:svg="http://www.w3.org/2000/svg">
  <defs
     id="defs2" />
  <g
     id="layer7"
     style="display:inline;fill:#ffff00"
     transform="translate(0,-2)">
    <rect
       style="fill:#ffff00;fill-opacity:1"
       id="rect251"
       width="702"
       height="698"
       x="0"
       y="2"
       ry="0.92002743" />
  </g>
  <g
     id="layer5"
     style="display:inline"
     transform="translate(0,-2)">
    <path
       style="fill:#d40000;fill-opacity:1"
       d="m 315.64258,146.75781 c -60.21187,0.35261 -121.28806,12.8276 -173.84488,43.09261 -39.7117,22.00119 -73.848383,56.74654 -88.128125,100.54533 -3.383518,10.55608 -6.45583,21.42933 -7.788716,32.40698 1.430448,5.92725 8.437083,2.77959 10.363281,-1.0664 12.625306,-16.4671 26.097652,-33.03233 44.66547,-43.11278 32.1476,-19.05507 68.17142,-30.93793 105.05523,-36.40675 67.13837,-11.22313 137.27176,-11.1542 202.47852,9.95508 3.91211,0.51947 2.39578,3.11317 -0.35352,4.49804 -15.04318,9.3966 -32.38437,14.28686 -48.21609,22.17115 -76.79797,34.38251 -153.73171,68.50942 -229.91477,104.22924 -4.72001,2.80268 -0.47761,10.43527 4.44141,7.64258 87.09656,-24.30142 173.99623,-49.31328 261.32227,-72.7832 61.11707,-17.42772 122.30623,-34.6737 183.10546,-53.16602 5.76083,-1.40965 3.97317,-8.14047 0.92969,-11.39258 -16.95069,-24.15053 -41.90141,-41.28122 -66.70647,-56.5506 -37.1351,-22.03039 -79.16771,-34.37535 -121.20024,-43.07411 -25.08126,-4.93931 -50.65286,-7.17703 -76.20852,-6.98857 z"
       id="path252" />
    <path
       style="fill:#d40000;fill-opacity:1"
       d="m 544.92773,306.30078 c -24.27588,27.68419 -48.35578,55.63496 -71.58007,84.18945 -1.41722,6.63461 6.30877,5.46268 10.15039,4.04688 10.05714,-2.04794 19.96373,-4.82281 30.08203,-6.5625 -15.33464,29.78347 -42.5265,52.40779 -73.27539,65.08984 -41.19764,17.46953 -86.4882,24.09587 -131.14649,26.01953 -61.90266,-0.2999 -125.1028,-6.03904 -183.04946,-29.42504 -12.18516,-4.47852 -23.11954,-11.78506 -34.882178,-17.36988 -5.574584,-1.44405 -6.526808,6.17767 -2.919922,8.98828 23.25631,27.9806 55.00736,47.59486 87.56445,63.03711 47.80404,20.47964 99.28047,32.81207 151.23625,35.52271 33.52654,-0.0666 67.35524,0.0896 100.32001,-6.8842 31.0887,-5.70625 62.04057,-13.99399 89.89167,-29.32972 40.97575,-20.64625 79.39955,-52.62801 95.01042,-97.08041 6.05901,-15.9292 7.34445,-33.02015 8.41861,-49.84752 11.84988,-4.04661 24.34349,-6.33325 35.90625,-11.11914 4.34058,-4.62069 -2.50193,-7.93166 -6.52301,-8.54052 -34.0887,-10.91836 -68.13587,-22.21636 -102.64691,-31.65284 -0.86552,0.21067 -1.70322,0.63383 -2.55665,0.91797 z"
       id="path253" />
  </g>
  <g
     stroke-linecap="round"
     id="Ebene_3"
     style="display:inline;fill:#ff2a2a"
     transform="translate(0,-2)">
    <path
       d="m 46.11,332.65 c 0.05333,-0.58 0.11,-1.15667 0.17,-1.73 8.18,-79.28 60.82,-134.84333 157.92,-166.69 l 1.18,-0.38 0.12,-0.04 c 0.0867,-0.02 0.26667,-0.07 0.54,-0.15 0.38,-0.10667 0.65333,-0.18333 0.82,-0.23 0.16667,-0.0467 0.33,-0.0933 0.49,-0.14 92.91333,-26.14 186.81667,-18.78 281.71,22.08 l 1.34,0.58 0.37,0.19 c 46.76,24.48 77.4,49.26333 91.92,74.35 l 0.3,0.52 -0.41,0.35 c -2.86,2.00667 -9.82333,4.34333 -20.89,7.01 -0.22667,0.0533 -0.45333,0.11 -0.68,0.17 -0.23333,0.06 -0.46667,0.12333 -0.7,0.19 -0.22667,0.06 -0.45667,0.13 -0.69,0.21 -122.63333,36.24667 -201.44667,58.53 -236.44,66.85 -0.40667,0.1 -0.80667,0.19667 -1.2,0.29 l -0.17,0.04 c -0.10667,0.0333 -0.34333,0.10333 -0.71,0.21 -0.50667,0.14 -0.87,0.24333 -1.09,0.31 -115.37333,32.82667 -177.15,50.34 -185.33,52.54 -0.58667,0.16 -0.9,0.24 -0.94,0.24 -6.6,0.25333 -8.12333,-1.52333 -4.57,-5.33 l 0.43,-0.2 c 0.57333,-0.25333 1.00333,-0.44667 1.29,-0.58 l 0.86,-0.38 c 150.42667,-67.74 230.96,-104.00667 241.6,-108.8 l 1.21,-0.54 c 31.75333,-11.68667 43.82,-19.18333 36.2,-22.49 l -0.62,-0.2 c -0.56,-0.18 -0.90667,-0.29 -1.04,-0.33 -70.93333,-22.74 -152.27667,-23.29333 -244.03,-1.66 -0.40667,0.0933 -0.81333,0.19 -1.22,0.29 l -0.5,0.14 c -47.68667,16.2 -79.113333,34.08333 -94.28,53.65 -15.166667,19.57333 -22.82,29.46 -22.96,29.66"
       fill="none"
       stroke="#c41c0e"
       stroke-width="3.6"
       stroke-opacity="1"
       stroke-linejoin="round"
       id="path1"
       style="fill:#ff2a2a" />
    <path
       d="m 77.73,423.18 q 0.65,0.53 1.31,1.06 69.04,55.11 227.93,56.66 0.6,0 1.21,0.01 0,0 0.15,-0.01 0.15,-0.01 0.64,-0.03 0.69,-0.03 0.98,-0.05 166.47,-8.5 205.92,-94.27 0.25,-0.55 0.49,-1.1 -46.81,10.91 -46.81,10.91 0.27,-0.32 0.54,-0.64 71.31,-83.47 76.35,-89.36 0.38,-0.45 0.38,-0.45 0,0 0.41,0.13 108.26,34.12 115.83,36.51 0.58,0.18 0.58,0.18 -44.55,12.72 -44.55,12.72 0,0 0.01,0.8 0.78,106.92 -135.31,161.06 -0.53,0.21 -1.06,0.42 0,0 -0.14,0.04 -0.14,0.04 -0.59,0.19 -0.64,0.19 -0.91,0.28 -0.28,0.08 -0.55,0.17 -154.49,47.73 -304.99,-15.52 -0.73,-0.31 -1.46,-0.62 0,0 -0.4,-0.2 -72.44,-36.16 -95.66,-78.34 -0.15,-0.27 -0.3,-0.55"
       fill="none"
       stroke="#c41c0e"
       stroke-width="3.6"
       stroke-opacity="1"
       stroke-linejoin="round"
       id="path2"
       style="fill:#ff2a2a" />
  </g>
  <g
     id="layer1"
     style="display:inline"
     transform="translate(0,-2)">
    <path
       style="display:inline;fill:#ff8080"
       d="m 72.96803,272.25803 c 0,0 0,0 0,0 21.97027,-24.71165 43.94009,-49.4228 73.37922,-68.94296 29.43912,-19.52017 66.34443,-33.84749 101.55828,-41.25897 35.21384,-7.41148 68.73198,-7.90623 102.26835,-3.24846 33.53637,4.65776 67.08762,14.46769 91.47718,28.06967 24.38955,13.60199 39.61581,30.99479 35.11781,31.1052 -4.498,0.1104 -28.71973,-17.0616 -60.30563,-27.1897 -31.58589,-10.12811 -70.53293,-13.21116 -102.46011,-13.20091 -31.92718,0.0102 -56.83223,3.11368 -83.72556,9.70909 -26.89333,6.59541 -55.77173,16.68202 -82.32165,31.42379 -26.54992,14.74176 -50.768663,34.13731 -74.98789,53.53325 z"
       id="path4"
       transform="matrix(0.96584484,0,0,0.76373239,16.154274,39.440886)" />
    <path
       style="display:inline;fill:#ffd5d5"
       d="m 95.367466,327.48223 c 0,0 0,0 0,0 20.808814,-33.11533 41.617214,-66.22999 67.323024,-94.95438 25.70582,-28.72439 56.30634,-53.05568 88.36761,-65.46946 32.06127,-12.41377 65.57941,-12.90852 96.12913,-5.04929 30.54972,7.85924 58.12735,24.07151 78.53504,42.07562 20.40769,18.0041 33.64297,37.79786 29.9746,36.70771 -3.66838,-1.09014 -24.23998,-23.06406 -51.84367,-37.59418 -27.60369,-14.53012 -62.23686,-21.61485 -91.84113,-22.60502 -29.60427,-0.99017 -54.17749,4.11406 -77.91825,15.71176 -23.74075,11.59771 -46.6462,29.6875 -69.62873,52.63303 -22.98254,22.94553 -46.03985,50.74459 -69.097624,78.54421 z"
       id="path4-1"
       transform="matrix(0.96584484,0,0,0.40046109,16.370589,97.820861)" />
    <path
       style="display:inline;fill:#c83737"
       d="m 88.470525,393.39893 c 5.631045,-21.28774 11.262089,-42.57547 22.062445,-66.03636 10.80036,-23.46089 26.7697,-49.0944 48.09962,-70.59131 21.32993,-21.4969 48.01816,-38.85508 82.37912,-51.2146 34.36095,-12.35952 76.39048,-19.71888 116.55905,-18.33993 40.16857,1.37895 78.47133,11.49604 106.01084,29.96488 27.53952,18.46884 44.31243,45.28719 42.41298,49.66094 -1.89946,4.37376 -22.47106,-13.69761 -54.72814,-25.54414 -32.25709,-11.84654 -76.19576,-17.46681 -110.91898,-16.99031 -34.72322,0.4765 -60.2268,7.04973 -91.10927,20.14289 -30.88247,13.09316 -67.14008,32.70466 -94.83148,58.61644 -27.69141,25.91178 -46.8136,58.12131 -65.936185,90.3315 z"
       id="path4-1-1"
       transform="matrix(0.83279633,0,0,0.43553287,-8.1801808,134.83072)" />
    <path
       style="display:inline;fill:#c83737"
       d="m 78.265404,389.49622 c 11.310205,-10.86585 22.620366,-21.73166 38.363886,-33.26857 15.74353,-11.5369 35.92021,-23.74475 55.17031,-34.56416 19.25009,-10.81941 37.57338,-20.25028 55.18088,-30.63677 17.60749,-10.3865 34.49757,-21.72764 58.571,-35.49394 24.07343,-13.76631 55.32734,-29.95614 97.90133,-51.3906 42.57399,-21.43445 96.46291,-48.11095 136.943,-66.49566 40.48008,-18.3847 67.54639,-28.47539 77.77023,-31.09283 10.22385,-2.61745 3.60402,2.23865 -41.49742,27.98157 -45.10143,25.74292 -128.67901,72.36956 -183.22288,102.74266 -54.54386,30.3731 -80.04744,44.48901 -105.78231,57.85814 -25.73488,13.36913 -56.7215,28.43184 -76.08461,38.75429 -19.3631,10.32245 -44.25166,24.96773 -64.08083,34.86121 -19.82917,9.89348 -34.038657,15.13742 -49.232586,20.74466 z"
       id="path4-1-1-1"
       transform="matrix(0.83279633,0,0,0.43553287,64.532441,217.64691)" />
    <path
       style="display:inline;fill:#c83737"
       d="m 88.470525,393.39893 c 1.736486,-22.96528 3.472964,-45.93045 8.324554,-66.29306 4.851591,-20.3626 12.818191,-38.12222 20.805051,-54.22233 7.98685,-16.10011 15.99379,-30.54037 33.99904,-50.48744 18.00525,-19.94706 46.0072,-45.39926 84.0146,-60.66971 38.00741,-15.27045 86.01585,-20.35746 132.04186,-10.80018 46.02601,9.55728 90.06405,33.75768 118.41972,56.52744 28.35568,22.76976 41.02555,44.1061 37.56921,43.12615 -3.45633,-0.97995 -23.03846,-24.27609 -53.4291,-44.04328 -30.39063,-19.7672 -71.58612,-36.00308 -113.83183,-39.83061 -42.24571,-3.82754 -85.53656,4.75373 -124.36787,25.6679 -38.8313,20.91417 -73.19834,54.15869 -96.37933,89.719 -23.18099,35.56032 -35.17332,73.43283 -47.165905,111.30612 z"
       id="path4-1-1-5"
       transform="matrix(-1.1336742,0,0,-0.72717774,716.10497,645.27919)" />
    <path
       style="display:inline;fill:#ffaaaa"
       d="m 70.872154,410.47512 c 4.869884,-25.4041 9.739767,-50.80819 21.152104,-80.387 11.412332,-29.57882 29.366752,-63.33164 57.223462,-96.68551 27.85672,-33.35387 65.61269,-66.30539 104.22169,-81.4022 38.609,-15.09681 78.06633,-12.33708 112.87043,-1.79934 34.80411,10.53774 64.95078,28.85222 86.98206,46.41249 22.03127,17.56027 35.94448,34.36421 32.27611,33.27406 -3.66838,-1.09014 -24.91791,-20.07424 -54.35643,-34.55113 -29.43852,-14.47689 -67.06249,-24.44484 -101.59957,-29.333 -34.53707,-4.88817 -65.98311,-4.69597 -102.24717,16.97723 -36.26407,21.67319 -77.34175,64.82474 -104.2321,106.32149 -26.890347,41.49674 -39.590337,81.33442 -52.290586,121.17291 z"
       id="path4-1-1-3"
       transform="matrix(-0.82732582,0,0,-0.29478883,563.09372,536.45097)" />
    <path
       style="fill:#ff5555"
       d="m 421.95053,230.28595 c 4.16662,1.44229 9.13451,3.36535 12.05917,6.3301 2.92466,2.96475 3.80604,6.97104 3.24059,10.81547 -0.56545,3.84443 -2.57763,7.52671 -5.03518,10.73101 -2.45755,3.2043 -5.36018,5.93024 -9.21701,8.45687 -3.85683,2.52663 -8.66741,4.85367 -16.23758,8.14479 -7.57016,3.29113 -17.89899,7.54595 -15.43987,7.46496 2.45911,-0.081 17.70633,-4.4979 29.69698,-8.58939 11.99064,-4.09149 20.72435,-7.8574 29.1378,-11.34297 8.41345,-3.48558 16.50615,-6.69061 22.79619,-9.09444 6.29004,-2.40384 10.77708,-4.00635 13.98219,-5.16821 3.20512,-1.16185 5.12815,-1.88298 -3.84632,-5.20832 -8.97447,-3.32534 -28.84565,-9.25465 -42.66769,-12.33955 -13.82204,-3.08491 -21.59424,-3.32529 -23.79771,-2.9647 -2.20346,0.36058 1.16182,1.32209 5.32844,2.76438 z"
       id="path5"
       transform="matrix(1.2703059,0,0,1.4081781,-123.7041,-102.71734)" />
    <path
       style="fill:#ff8080"
       d="m 425.74473,230.5186 c 2.50341,1.3027 4.53465,2.76043 6.61474,5.63214 2.08009,2.87171 4.20886,7.15717 4.36369,10.79907 0.15484,3.64189 -1.6642,6.63997 -2.94841,9.02178 -1.2842,2.38181 -2.03344,4.14708 -3.75077,6.30283 -1.71733,2.15574 -4.40256,4.7017 -10.16429,8.05561 -5.76174,3.3539 -14.59929,7.51534 -13.12881,7.54247 1.47047,0.0271 13.24879,-4.08004 22.25789,-7.41189 9.0091,-3.33184 15.24803,-5.88802 22.41407,-8.76871 7.16604,-2.88069 15.25874,-6.08572 20.57422,-8.46629 5.31548,-2.38057 7.85342,-3.93652 9.23941,-5.54043 1.38598,-1.60391 1.61982,-3.25557 -6.10718,-6.30174 -7.72701,-3.04616 -23.41395,-7.48647 -34.37748,-10.1294 -10.96352,-2.64292 -17.20233,-3.48815 -18.83414,-3.33696 -1.63181,0.15119 1.34366,1.29881 3.84706,2.60152 z"
       id="path5-5"
       transform="matrix(1.0901019,0,0,1.217695,-39.413783,-55.698754)" />
    <path
       style="fill:#ffaaaa"
       d="m 431.381,231.14536 c 4.72889,5.45031 6.02241,10.94874 5.36411,16.4397 -0.6583,5.49095 -3.26853,10.97331 -8.41058,16.96343 -5.14205,5.99011 -12.90335,12.56196 -14.16369,14.93827 -1.26033,2.37631 3.80502,0.70535 13.88595,-3.36322 10.08093,-4.06857 25.09554,-10.49968 36.75563,-16.576 11.6601,-6.07631 19.88253,-11.75749 17.73261,-17.09695 -2.14993,-5.33947 -14.68065,-10.33049 -28.44726,-14.8648 -13.76662,-4.53432 -28.76743,-8.61137 -32.18714,-7.95036 -3.41971,0.66102 4.74148,6.05961 9.47037,11.50993 z"
       id="path5-4"
       transform="matrix(0.58297783,0,0,0.64402858,190.65233,86.685883)" />
    <path
       style="fill:#f6ffd5"
       d="m 431.96958,230.26078 c 3.74809,5.9418 5.2377,11.63676 4.67747,17.226 -0.56024,5.58923 -3.17047,11.07159 -8.21446,17.94623 -5.04398,6.87465 -12.52151,15.14131 -13.72761,18.43927 -1.20609,3.29797 3.84837,1.6306 13.83647,-3.32621 9.9881,-4.95681 24.80722,-13.15124 36.36914,-20.11304 11.56193,-6.9618 19.78436,-12.64298 17.53637,-18.08073 -2.24799,-5.43774 -14.97482,-10.62532 -27.76079,-15.65105 -12.78597,-5.02574 -25.62949,-9.88901 -29.04905,-9.22789 -3.41956,0.66112 2.58436,6.84561 6.33246,12.78742 z"
       id="path5-4-2"
       transform="matrix(0.40855085,0,0,0.40764323,271.70419,144.35157)" />
    <path
       style="fill:#ffaaaa"
       d="m 413.59305,164.78101 c 13.15627,12.79712 29.11369,28.20558 40.32215,38.77986 11.20847,10.57427 17.66464,16.31116 19.31244,24.78473 1.6478,8.47357 -1.51285,19.68369 -8.83105,43.78193 -7.3182,24.09825 -18.79358,61.0834 -19.4519,67.78876 -0.65833,6.70535 9.47847,-16.81868 17.81564,-38.28946 8.33717,-21.47077 14.79533,-40.68109 19.24316,-53.87045 4.44783,-13.18937 6.85205,-20.25893 5.29748,-25.83567 -1.55456,-5.57674 -7.07025,-9.65244 -25.65719,-24.45131 -18.58693,-14.79888 -50.24277,-40.31908 -60.89774,-47.9906 -10.65498,-7.67152 -0.30926,2.5051 12.84701,15.30221 z"
       id="path5-4-2-5"
       transform="matrix(0,-0.40855085,0.40764323,0,456.91509,507.97001)" />
    <path
       style="fill:#c83737"
       d="m 480.40331,390.4676 c 1.88315,-1.72988 12.41965,-7.21848 22.25101,-10.77115 9.83135,-3.55267 18.95683,-5.16913 25.76764,-6.99202 6.8108,-1.82289 11.30683,-3.85219 7.4531,2.34225 -3.85373,6.19444 -16.05702,20.6124 -18.40939,22.55017 -2.35237,1.93777 5.14629,-8.60471 4.51732,-12.68883 -0.62898,-4.08413 -9.38549,-1.70976 -15.72722,-0.0947 -6.34172,1.61504 -10.26819,2.47061 -15.6167,3.91291 -5.34852,1.4423 -12.11892,3.47127 -10.23576,1.7414 z"
       id="path6"
       transform="translate(-6.9690053,3.0595633)" />
    <path
       style="fill:#c83737"
       d="m 491.65003,383.69691 c 1.34489,-0.99331 9.33181,-2.65754 16.9676,-4.3971 7.6358,-1.73956 14.91991,-3.55433 20.97999,-4.88146 6.06008,-1.32713 10.89606,-2.16661 9.97443,-1.55306 -0.92164,0.61355 -7.60073,2.68008 -14.30322,4.82773 -6.7025,2.14764 -13.42777,4.37621 -17.49319,5.66338 -4.06542,1.28717 -5.47064,1.63283 -8.82193,1.6445 -3.3513,0.0117 -8.64858,-0.31068 -7.30368,-1.30399 z"
       id="path6-2"
       transform="translate(117.98331,-29.88451)" />
  </g>
</svg>
